<?xml version="1.0" encoding="UTF-8"?><svg id="Ebene_1" xmlns="http://www.w3.org/2000/svg" viewBox="0 0 904.09 221.97"><defs><style>.cls-1{fill:none;stroke:#000;stroke-miterlimit:10;stroke-width:11px;}</style></defs><polyline class="cls-1" points="104.63 46.75 104.63 13.28 161.7 70.35 144.97 87.09 178.43 87.09 202.33 110.98 104.63 208.69 104.63 120.89 132.1 120.89"/><polyline class="cls-1" points="74.11 77.07 74.11 41.35 7.69 110.98 74.11 177.4 74.11 141.42"/><path class="cls-1" d="m87.05,87.41c0,7.14-5.8,12.94-12.94,12.94s-12.94-5.8-12.94-12.94,5.79-12.94,12.94-12.94,12.94,5.79,12.94,12.94Z"/><path class="cls-1" d="m86.72,130.11c0,7.15-5.79,12.94-12.94,12.94s-12.94-5.8-12.94-12.94,5.79-12.94,12.94-12.94,12.94,5.8,12.94,12.94Z"/><path class="cls-1" d="m117.89,57.66c0,7.14-5.8,12.94-12.94,12.94s-12.94-5.8-12.94-12.94,5.79-12.94,12.94-12.94c7.14,0,12.94,5.79,12.94,12.94Z"/><path class="cls-1" d="m156.62,121.2c0,7.14-5.8,12.94-12.94,12.94s-12.94-5.8-12.94-12.94,5.79-12.94,12.94-12.94,12.94,5.79,12.94,12.94Z"/><g><path d="m292.32,133.16c-7.33,7.21-15.06,10.04-24.45,10.04-18.4,0-33.71-11.07-33.71-33.58s15.31-33.58,33.71-33.58c9.01,0,15.96,2.57,22.9,9.39l-9.91,10.42c-3.73-3.35-8.36-5.02-12.74-5.02-10.55,0-18.27,7.72-18.27,18.79,0,12.1,8.24,18.53,18.01,18.53,5.02,0,10.04-1.42,13.9-5.28l10.55,10.29Z"/><path d="m313.81,77.83l1.16,7.33c4.89-7.85,11.45-9.01,17.89-9.01s12.87,2.57,16.34,6.05l-7.08,13.64c-3.22-2.7-6.18-4.12-11.32-4.12-8.24,0-15.83,4.38-15.83,16.08v33.46h-15.7v-63.44h14.54Z"/><path d="m368.5,115.15c1.03,7.85,7.85,13.51,18.92,13.51,5.79,0,13.38-2.19,16.99-5.92l10.04,9.91c-6.69,6.95-17.63,10.29-27.28,10.29-21.88,0-34.87-13.51-34.87-33.84s13.12-33.2,33.71-33.2,34.49,13.12,32.04,39.25h-49.54Zm34.49-13c-1.03-8.24-7.46-12.35-16.47-12.35-8.49,0-15.44,4.12-17.76,12.35h34.23Z"/><path d="m480.44,77.83h15.06v63.44h-14.8l-.77-9.26c-3.6,7.46-13.51,11.07-20.59,11.19-18.79.13-32.68-11.45-32.68-33.71s14.54-33.33,33.07-33.2c8.49,0,16.6,3.99,20.2,10.29l.51-8.75Zm-38.09,31.65c0,12.1,8.36,19.3,18.79,19.3,24.71,0,24.71-38.47,0-38.47-10.42,0-18.79,7.08-18.79,19.17Z"/><path d="m528.18,59.94v18.02h17.5v13.51h-17.63v27.41c0,6.05,3.34,9.01,8.24,9.01,2.44,0,5.28-.77,7.59-1.93l4.38,13.38c-4.5,1.8-8.24,2.57-13,2.7-13.77.51-22.78-7.33-22.78-23.16v-27.41h-11.84v-13.51h11.84v-16.34l15.7-1.67Z"/><path d="m620.44,109.61c0,18.27-12.48,33.07-33.07,33.07s-32.94-14.8-32.94-33.07,12.61-33.07,32.81-33.07,33.2,14.93,33.2,33.07Zm-50.31,0c0,9.65,5.79,18.66,17.24,18.66s17.24-9.01,17.24-18.66-6.69-18.79-17.24-18.79c-11.32,0-17.24,9.26-17.24,18.79Z"/><path d="m645.79,77.83l1.16,7.33c4.89-7.85,11.45-9.01,17.89-9.01s12.87,2.57,16.34,6.05l-7.08,13.64c-3.22-2.7-6.18-4.12-11.32-4.12-8.24,0-15.83,4.38-15.83,16.08v33.46h-15.7v-63.44h14.54Z"/></g><g><path d="m700.02,52.39v40.4c5.15-10.29,15.44-14.93,26.38-14.93,17.76,0,31.91,11.84,31.91,32.81s-14.03,32.81-31.78,32.81c-10.81,0-21.23-5.4-26.51-15.05v14.03h-6.18V52.39h6.18Zm.13,58.16c0,15.83,11.07,26.76,25.99,26.76s25.99-9.01,25.99-26.64-11.71-26.76-25.99-26.76-25.99,10.81-25.99,26.64Z"/><path d="m770.79,110.81c0-20.2,14.41-33.07,32.3-33.07s32.3,12.87,32.3,33.07-14.41,32.55-32.3,32.55-32.3-12.35-32.3-32.55Zm58.42,0c0-16.47-11.71-27.15-26.12-27.15s-26.12,10.68-26.12,27.15,11.71,26.38,26.12,26.38,26.12-9.91,26.12-26.38Z"/><path d="m871.03,104.89l18.92-25.99h7.59v.26l-22.78,30.37,24.58,32.68v.26h-7.46l-20.85-28.44-20.84,28.44h-7.46v-.26l24.58-32.68-22.78-30.37v-.26h7.59l18.92,25.99Z"/></g></svg>