<?xml version="1.0" encoding="UTF-8"?><svg id="Ebene_1" xmlns="http://www.w3.org/2000/svg" viewBox="0 0 350.55 85.59"><defs><style>.cls-1{fill:rgba(255,0,0,0);}.cls-1,.cls-2{stroke:#000;stroke-miterlimit:10;stroke-width:2.62px;}.cls-2{fill:none;}</style></defs><g><path d="m9.62,33.44h.17c1.4,0,2.8.35,4.37,1.22.35.17.87.7,1.57,1.22.52.52.87.87,1.05,1.22.35.52.7,1.05.87,1.4l-1.75.87c-.35-.52-.7-1.05-1.05-1.57-.52-.52-.87-.87-1.05-1.05-1.22-1.05-2.62-1.57-4.2-1.57h0c-1.75,0-3.5.7-4.9,2.27-.52.52-.87,1.05-1.22,1.57-1.05,1.75-1.57,3.85-1.57,5.95h0c0,2.27.52,4.37,1.75,6.12.35.35.7.87,1.22,1.57,1.4,1.4,3.15,2.1,4.9,2.1s3.15-.7,4.72-1.92c.52-.52.87-.87,1.05-1.22s.52-.7.7-1.05c1.05.52,1.57.87,1.57.87-.17.35-.52.87-.87,1.4-.17.35-.7.87-1.22,1.4l-.52.52c-1.57,1.22-3.5,1.92-5.25,1.92h-.35c-1.92,0-3.67-.7-5.25-1.92-.7-.7-1.4-1.22-1.75-1.75s-.7-1.05-1.05-1.57c-1.05-1.92-1.57-4.02-1.57-6.3v-.35c0-1.92.52-3.85,1.4-5.77.35-.52.7-1.05,1.05-1.75.17-.35.7-.87,1.22-1.4.7-.52,1.22-1.05,1.57-1.22,1.4-.7,2.8-1.22,4.37-1.22Z"/><path d="m34.12,33.61h1.4c1.4,0,2.62.52,3.85,1.57.35.35.7.7.87,1.05-.17.17-.7.52-1.57,1.22-.17-.17-.17-.35-.35-.52-.35-.35-.52-.52-.7-.7-.7-.35-1.4-.7-2.1-.7h-1.05c-1.4,0-2.62.7-3.67,2.1-.87,1.4-1.22,3.15-1.22,5.42v13.47h-1.92v-22.57h1.75v2.45c.17-.35.35-.7.87-1.22s1.05-.87,1.4-1.05c.7-.17,1.57-.52,2.45-.52Z"/><path d="m56.69,33.44h.35c1.4,0,2.97.35,4.37,1.22.35.17.87.52,1.4,1.05l1.22,1.22c.7.87,1.05,1.57,1.4,2.1s.52,1.22.87,2.1c.17.7.35,1.22.35,1.22-.35.17-2.97.87-8.05,2.45l-9.1,2.8c.17.52.35.87.35,1.4.35.7.7,1.4,1.05,2.1.17.35.52.7,1.05,1.4,1.57,1.4,3.15,2.1,4.9,2.1,1.92,0,3.5-.7,5.07-2.27.7-.7,1.05-1.22,1.4-1.75l.17-.17h0c1.05.7,1.57.87,1.57,1.05-.17.52-.52.87-1.05,1.4-.17.35-.52.52-.87,1.05-.7.7-1.4,1.22-1.92,1.4-1.4.87-2.8,1.22-4.2,1.22h-.17c-1.75,0-3.32-.52-4.9-1.57-.35-.17-.87-.7-1.4-1.05-.52-.52-1.05-1.05-1.22-1.57-.7-.87-1.22-2.1-1.57-3.15-.7-1.4-.87-2.8-.87-4.02v-.35c0-1.75.35-3.5,1.05-5.25.35-.7.7-1.4,1.22-2.1.17-.35.52-.7,1.05-1.22.52-.52,1.05-1.05,1.57-1.22,1.57-1.05,3.32-1.57,4.9-1.57Zm-7.87,11.55h0v1.22l10.85-3.32,4.37-1.4c0-.17-.17-.7-.52-1.4-.17-.52-.52-1.05-.87-1.57-.17-.35-.52-.7-1.05-1.05l-.35-.35c-1.4-1.05-2.8-1.75-4.55-1.75h0c-1.75,0-3.32.7-4.72,1.92-.52.52-.87,1.05-1.05,1.22-.35.52-.7,1.05-.87,1.57-.87,1.57-1.22,3.15-1.22,4.9Z"/><path d="m83.1,33.61c2.62,0,4.72,1.05,5.95,2.97.7,1.22,1.05,2.45,1.05,3.85v10.67c0,1.22.17,2.62.52,4.2.17.35.35.87.35,1.22h-2.1s-.17-.17-.17-.7c-.17-.52-.35-1.22-.35-2.1v-.17c-.87.7-1.57,1.22-2.1,1.57-.7.35-1.22.7-1.92.87-1.4.52-2.62.7-3.67.7h-.35c-1.4,0-2.62-.35-3.67-1.05-.35-.17-.7-.52-1.05-.87,0,0,0-.17-.17-.35-.87-1.22-1.4-2.62-1.4-4.2v-.17c0-2.97,1.92-4.9,5.6-5.95,1.92-.52,4.2-.7,6.82-.7h1.92v-2.97c0-1.4-.35-2.62-1.22-3.67-.87-.87-2.1-1.4-3.85-1.4-1.4,0-2.97.35-4.72.87-.7.35-1.75.7-3.15,1.4l-.52.35-.87-1.75c1.57-.7,2.8-1.22,3.5-1.57.52-.17,1.4-.52,2.45-.7,1.22-.17,2.1-.35,3.15-.35Zm-7.35,16.8h0c0,1.57.52,2.8,1.75,3.67.87.52,1.75.87,2.8.87h.17c1.4,0,2.8-.35,4.37-1.22.52-.35,1.05-.7,1.75-1.05.35-.35.87-.7,1.57-1.4v-5.6h-1.92c-3.5,0-6.3.52-8.22,1.57-.35.17-.7.35-1.05.7-.35.35-.7.7-.7,1.05-.35,0-.52.7-.52,1.4Z"/><path d="m104.27,21.36h1.92v12.42h6.82v1.92h-6.82v14.87c0,1.22.35,2.1.87,2.97.17.35.52.52.7.7.52.35,1.22.52,1.75.52h.17c.7,0,1.57-.17,2.8-.7.17,0,.17-.17.35-.17l.87,1.75c-.35.17-1.05.52-1.92.7-.7.17-1.4.35-1.92.35h-.35c-.87,0-1.57-.35-2.45-.87-.17-.17-.52-.35-1.05-.87-.52-.52-.87-1.22-1.05-1.75-.35-.87-.35-1.75-.35-2.45v-15.05h-4.37v-1.92h4.37v-12.42h-.35Z"/><path d="m131.04,33.44h.17c1.57,0,2.97.52,4.55,1.4.35.17.87.7,1.4,1.05.35.35.7.7.87,1.05.52.7.87,1.4,1.22,1.92,1.05,1.92,1.57,4.02,1.57,6.3,0,2.45-.7,4.72-1.92,6.82-.35.52-.87,1.22-1.4,1.92-.7.7-1.22,1.05-1.57,1.22-1.57,1.05-3.15,1.57-4.9,1.57h-.17c-1.92,0-3.67-.7-5.25-1.92-.7-.7-1.4-1.22-1.75-1.92-.35-.52-.7-1.05-1.05-1.4-1.05-2.1-1.57-4.2-1.57-6.3v-.35c0-1.92.52-3.85,1.4-5.77.35-.52.7-1.22,1.05-1.75.35-.35.7-.87,1.22-1.4l.35-.35c1.05-.87,2.27-1.57,3.32-1.75.87-.17,1.57-.35,2.45-.35Zm-7.7,11.55h0c0,2.45.7,4.72,2.1,6.65.17.17.52.7,1.05,1.22l.35.35c1.4,1.05,2.8,1.57,4.37,1.57,1.75,0,3.32-.7,4.9-2.1.52-.52.87-1.05,1.22-1.57,1.22-1.92,1.75-3.85,1.75-6.12s-.52-4.37-1.75-6.12c-.17-.35-.52-.7-.87-1.22-.52-.52-.87-.87-1.22-1.05-1.22-.87-2.45-1.22-3.85-1.22h0c-1.75,0-3.5.7-4.9,2.27-.52.52-.87,1.05-1.22,1.57-1.4,1.75-1.92,3.67-1.92,5.77Z"/><path d="m157.64,33.61h1.4c1.4,0,2.62.52,3.85,1.57.35.35.7.7.87,1.05-.17.17-.7.52-1.57,1.22-.17-.17-.17-.35-.35-.52-.35-.35-.52-.52-.7-.7-.7-.35-1.4-.7-2.1-.7h-1.05c-1.4,0-2.62.7-3.67,2.1-.87,1.4-1.22,3.15-1.22,5.42v13.47h-1.92v-22.57h1.92v2.45c.17-.35.35-.7.87-1.22s1.05-.87,1.4-1.05c.52-.17,1.4-.52,2.27-.52Z"/></g><g><path d="m171.81,22.06h4.55v14.87h0c.17-.35.52-.7,1.05-1.05,1.75-1.4,3.67-2.1,5.95-2.1h0c2.62,0,4.9.87,7.17,2.45.35.17.7.7,1.22,1.22,1.05,1.22,1.92,2.62,2.45,3.85.52,1.4.87,2.97.87,4.55,0,2.1-.52,4.02-1.57,5.77-.35.52-.7,1.22-1.4,1.92-.7.7-1.05,1.22-1.57,1.57s-.87.7-1.22.87c-1.92,1.22-3.85,1.75-5.95,1.75h-.35c-.87,0-1.92-.17-3.15-.52-.52-.17-1.22-.52-1.57-.7s-.87-.52-1.22-.87c-.17-.17-.52-.52-.87-.87v2.45h-4.72l.35-35.17h0Zm4.72,23.79h0c0,1.75.52,3.15,1.4,4.55.17.35.52.7.87,1.05l.35.35c.52.35.87.7,1.4.87,1.05.52,1.92.7,2.97.7,1.92,0,3.67-.7,5.07-2.27.52-.7.87-1.22,1.22-1.92.52-1.05.7-2.1.7-3.15v-.17c0-1.75-.52-3.5-1.75-4.9-1.4-1.57-3.15-2.45-5.25-2.45-.87,0-1.92.17-2.97.7-.52.17-1.05.52-1.4,1.05-.52.35-.7.7-.87.87-1.22,1.4-1.75,2.97-1.75,4.72Z"/><path d="m215.55,33.96c2.62,0,5.07.87,7.17,2.45.35.17.7.7,1.22,1.22,1.05,1.22,1.92,2.45,2.27,3.85.52,1.4.87,2.97.87,4.55,0,2.1-.52,4.02-1.4,5.77-.35.52-.87,1.22-1.4,1.92-.7.7-1.05,1.22-1.57,1.57-.35.35-.87.7-1.22.87-1.92,1.22-3.85,1.75-5.95,1.75h-.17c-2.1,0-4.2-.7-6.3-1.92-.35-.35-.7-.52-1.05-.87-.7-.52-1.05-1.05-1.4-1.4-.35-.35-.7-.87-.87-1.22-.35-.52-.52-1.05-.87-1.57-.7-1.75-1.05-3.32-1.05-4.9v-.35c0-1.75.52-3.67,1.4-5.42.17-.52.52-1.05.87-1.57.35-.35.7-.87,1.22-1.4.7-.7,1.4-1.22,1.75-1.4,2.1-1.22,4.2-1.92,6.47-1.92Zm-7,12.07c0,1.75.52,3.32,1.75,4.72.52.52.87.87,1.22,1.05,1.22,1.05,2.62,1.4,4.2,1.4,1.75,0,3.5-.7,4.9-2.1.52-.52.87-1.05,1.22-1.57.7-1.22,1.05-2.45,1.05-3.67h0c0-1.92-.7-3.5-1.92-4.9-.52-.52-.87-.87-1.05-1.05-.35-.17-.52-.35-.7-.52-1.05-.52-2.1-.87-3.32-.87-1.75,0-3.32.7-4.72,1.92-.52.52-.87.87-.87,1.05-1.22,1.4-1.75,2.8-1.75,4.55Z"/><path d="m241.79,34.31c.17.17,1.22,1.4,3.15,3.85l3.15,3.85,6.12-7.7h6.3l-8.05,9.62-1.05,1.22,4.9,6.12,4.9,6.12h-6.12l-1.57-1.92-5.6-7-7,9.1h-6.12l7.7-9.62,2.1-2.62-5.42-6.65-3.5-4.2h6.12v-.17Z"/></g><polyline id="polyline3556-2" class="cls-2" points="308.97 15.59 308.97 3.17 332.07 26.26 325.42 33.09 338.89 33.09 348.69 42.71 308.97 82.42 308.97 46.73 319.65 46.91"/><polyline id="polyline3558-3" class="cls-1" points="296.55 28.01 296.55 14.54 269.61 42.71 296.55 69.65 296.55 55.83"/><path id="path3560" class="cls-2" d="m301.8,33.26c0,2.97-2.27,5.25-5.25,5.25s-5.25-2.27-5.25-5.25,2.27-5.25,5.25-5.25,5.25,2.27,5.25,5.25Z"/><path id="path3562" class="cls-2" d="m301.8,50.58c0,2.97-2.27,5.25-5.25,5.25s-5.25-2.27-5.25-5.25,2.27-5.25,5.25-5.25c2.8,0,5.25,2.27,5.25,5.25Z"/><path id="path3564" class="cls-2" d="m314.4,21.19c0,2.97-2.27,5.25-5.25,5.25s-5.25-2.27-5.25-5.25,2.27-5.25,5.25-5.25c2.8,0,5.25,2.27,5.25,5.25Z"/><path id="path3566" class="cls-2" d="m330.14,46.91c0,2.97-2.27,5.25-5.25,5.25s-5.25-2.27-5.25-5.25,2.27-5.25,5.25-5.25c2.8,0,5.25,2.27,5.25,5.25Z"/></svg>